<svg fill="white" viewBox="0 0 1871.92 467.35">
  <defs/>
  <path class="cls-1" d="M439.78,155.27h78V77.54h54.31V285.75H517.82V201.46h-78v84.29h-54V77.54h54Z" transform="translate(-78.7 -72.85)"/>
  <path class="cls-1" d="M734.14,123.42h-64.3v34.66h60.87V204H669.84v35.9h64.3v45.89H615.84V77.54h118.3Z" transform="translate(-78.7 -72.85)"/>
  <path class="cls-1" d="M822.48,77.54V239.86h64.93v45.89H768.48V77.54Z" transform="translate(-78.7 -72.85)"/>
  <path class="cls-1" d="M969.2,77.54V239.86h64.92v45.89H915.19V77.54Z" transform="translate(-78.7 -72.85)"/>
  <path class="cls-1" d="M1238,259.53c-21.22,20.29-51.19,30.9-82.09,30.9s-60.87-10.61-82.1-30.9C1051.6,238.3,1041,209.27,1041,181.8c0-27.78,10.61-57.13,32.78-78,21.23-20.29,51.19-30.91,82.1-30.91s60.87,10.62,82.09,30.91c22.17,20.91,32.78,50.26,32.78,78C1270.74,209.27,1260.13,238.3,1238,259.53ZM1113.72,141.84c-11.23,10.93-16.54,26.23-16.54,40.89a52.93,52.93,0,0,0,16.54,38.71c10,9.68,24,16.55,42.15,16.55,18.41,0,32.15-6.56,41.82-16.24a57.3,57.3,0,0,0,16.86-39.95,56.18,56.18,0,0,0-16.86-40,62.28,62.28,0,0,0-41.82-16.54C1140.88,125.3,1125,130.61,1113.72,141.84Z" transform="translate(-78.7 -72.85)"/>
  <path class="cls-1" d="M535.3,528.66c-21.54,7.81-33.4,10.3-46.83,10.3-36.21,0-63.36-14.36-80.53-31.21a109.25,109.25,0,0,1-31.53-75.86c0-29.66,12.8-57.75,31.53-76.79a110.45,110.45,0,0,1,78.66-32.47c10,0,26.22,1.57,48.7,10.62v64.62c-17.48-21.54-38.09-22.79-47.14-22.79-15.61,0-27.47,4.68-37.46,13.74-12.8,11.85-18.1,28.09-18.1,42.76,0,14.36,5.93,30.28,16.85,40.58,9.06,8.42,23.42,14.36,38.71,14.36,8.12,0,28.09-.94,47.14-21.85Z" transform="translate(-78.7 -72.85)"/>
  <path class="cls-1" d="M757.24,508.06C736,528.35,706,539,675.14,539s-60.87-10.61-82.1-30.9c-22.16-21.23-32.77-50.26-32.77-77.73,0-27.78,10.61-57.13,32.77-78,21.23-20.29,51.2-30.91,82.1-30.91S736,332,757.24,352.29c22.16,20.91,32.77,50.26,32.77,78C790,457.8,779.4,486.83,757.24,508.06ZM633,390.37c-11.24,10.93-16.55,26.23-16.55,40.89A52.93,52.93,0,0,0,633,470c10,9.68,24,16.55,42.14,16.55,18.42,0,32.15-6.56,41.83-16.24a57.3,57.3,0,0,0,16.86-39.95,56.18,56.18,0,0,0-16.86-40,62.35,62.35,0,0,0-41.83-16.54C660.16,373.83,644.24,379.14,633,390.37Z" transform="translate(-78.7 -72.85)"/>
  <path class="cls-1" d="M810.94,534.28l35.27-208.21h53.38L941.73,437.2l44.64-111.13h54l31.22,208.21h-54l-15.29-119.87L952,534.28H930.49L882.42,414.41,864.63,534.28Z" transform="translate(-78.7 -72.85)"/>
  <path class="cls-1" d="M1190.2,326.07c15.61,0,35.59,2.5,50.89,18.42,11.86,12.17,17.79,30.28,17.79,46.82,0,17.8-6.25,33.4-16.55,43.39-8.11,7.8-19,12.49-28.71,14.36l65.24,85.22h-67.12l-51.81-79.91v79.91h-54V326.07Zm-30.27,93.34h10.3c8.11,0,19.66-2.19,26.22-8.44,4.06-4.05,6.86-10.92,6.86-17.48,0-6.24-2.49-13.11-7.17-17.47-5-5-14.05-8.12-25.91-8.12h-10.3Z" transform="translate(-78.7 -72.85)"/>
  <path class="cls-1" d="M1428.69,499.32h-75.54l-14.05,35H1282l79.91-208.21h59l78.35,208.21h-57.75Zm-14.36-41.21-23.41-67.43-22.79,67.43Z" transform="translate(-78.7 -72.85)"/>
  <path class="cls-1" d="M1523.28,534.28V326.07h70.85c20.92,0,55.88,2.81,82.73,28.72,24.35,23.41,29,53.38,29,75.85,0,27.47-6.87,51.82-27.16,72.11-16.54,16.55-44.33,31.53-79.91,31.53Zm54-45.89h10.93c13.11,0,31.52-1.25,45.57-15,6.87-6.56,15.92-19.67,15.92-42.77,0-19.35-5.93-35.9-16.23-45.57-12.8-11.87-29.66-13.12-43.08-13.12h-13.11Z" transform="translate(-78.7 -72.85)"/>
  <path class="cls-1" d="M1858.53,372h-64.3v34.66h60.87v45.88h-60.87v35.9h64.3v45.89h-118.3V326.07h118.3Z" transform="translate(-78.7 -72.85)"/>
  <path class="cls-1" d="M1895.68,530.53a32.47,32.47,0,0,1,22.79-55.25,32.79,32.79,0,0,1,23.1,10c5.3,5.3,9,12.18,9,22.48s-3.75,17.16-9.37,22.78a31.93,31.93,0,0,1-22.78,9.68A31.61,31.61,0,0,1,1895.68,530.53Z" transform="translate(-78.7 -72.85)"/>
  <path class="cls-1" d="M1282,308.09a50.59,50.59,0,0,0,11.56-3.43,41.57,41.57,0,0,0,4.25-2.2,18.92,18.92,0,0,0,3.68-2.85,13.48,13.48,0,0,0,2.63-3.62,9.73,9.73,0,0,0,1-4.36H1279V243.92h60.84v33q0,14.88-3.94,24.64a36.09,36.09,0,0,1-11.45,15.52,45.52,45.52,0,0,1-18.23,8.14,114.34,114.34,0,0,1-24.28,2.35Z" transform="translate(-78.7 -72.85)"/>
  <path class="cls-1" transform="translate(-245.55 153.93) rotate(-45)" d="M157.32 189.93H223.32999999999998V439.65999999999997H157.32z"/>
  <path class="cls-1" transform="translate(23.62 599.12) rotate(-135)" d="M157.32 189.93H223.32999999999998V439.65999999999997H157.32z"/>
</svg>